
<svg enable-background="new 0 0 48 48" version="1.1" viewBox="0 6 48 38" xml:space="preserve" xmlns="http://www.w3.org/2000/svg" xmlns:xlink="http://www.w3.org/1999/xlink"><g id="Expanded"><g><g><path d="M43,44H5c-2.757,0-5-2.243-5-5V11c0-2.757,2.243-5,5-5h38c2.757,0,5,2.243,5,5v28C48,41.757,45.757,44,43,44z M5,8     c-1.654,0-3,1.346-3,3v28c0,1.654,1.346,3,3,3h38c1.654,0,3-1.346,3-3V11c0-1.654-1.346-3-3-3H5z"></path></g><g><path d="M47,18H1c-0.553,0-1-0.448-1-1s0.447-1,1-1h46c0.553,0,1,0.448,1,1S47.553,18,47,18z"></path></g><g><circle cx="8" cy="12" r="2"></circle></g><g><circle cx="14" cy="12" r="2"></circle></g><g><circle cx="20" cy="12" r="2"></circle></g></g></g></svg>
