<svg version="1.1" id="Capa_1" xmlns="http://www.w3.org/2000/svg" xmlns:xlink="http://www.w3.org/1999/xlink" x="0px" y="0px" viewBox="36.57 0 355.27 428.41" style="enable-background:new 0 0 428.408 428.408;" xml:space="preserve">
<g>
	<g>
		<g>
			<circle cx="94.041" cy="214.204" r="57.469"></circle>
			<path d="M381.388,172.408H177.633c-5.771,0-10.449,4.678-10.449,10.449s4.678,10.449,10.449,10.449h203.755
				c5.771,0,10.449-4.678,10.449-10.449S387.159,172.408,381.388,172.408z"></path>
			<path d="M177.633,256h109.714c5.771,0,10.449-4.678,10.449-10.449s-4.678-10.449-10.449-10.449H177.633
				c-5.771,0-10.449,4.678-10.449,10.449S171.862,256,177.633,256z"></path>
			<circle cx="94.041" cy="57.469" r="57.469"></circle>
			<path d="M177.633,36.571h203.755c5.771,0,10.449-4.678,10.449-10.449c0-5.771-4.678-10.449-10.449-10.449H177.633
				c-5.771,0-10.449,4.678-10.449,10.449C167.184,31.893,171.862,36.571,177.633,36.571z"></path>
			<path d="M177.633,99.265h109.714c5.771,0,10.449-4.678,10.449-10.449s-4.678-10.449-10.449-10.449H177.633
				c-5.771,0-10.449,4.678-10.449,10.449S171.862,99.265,177.633,99.265z"></path>
			<circle cx="94.041" cy="370.939" r="57.469"></circle>
			<path d="M381.388,329.143H177.633c-5.771,0-10.449,4.678-10.449,10.449s4.678,10.449,10.449,10.449h203.755
				c5.771,0,10.449-4.678,10.449-10.449S387.159,329.143,381.388,329.143z"></path>
			<path d="M287.347,391.837H177.633c-5.771,0-10.449,4.678-10.449,10.449s4.678,10.449,10.449,10.449h109.714
				c5.771,0,10.449-4.678,10.449-10.449S293.118,391.837,287.347,391.837z"></path>
		</g>
	</g>
</g>
<g>
</g>
<g>
</g>
<g>
</g>
<g>
</g>
<g>
</g>
<g>
</g>
<g>
</g>
<g>
</g>
<g>
</g>
<g>
</g>
<g>
</g>
<g>
</g>
<g>
</g>
<g>
</g>
<g>
</g>
</svg>